{
  "accessors": [
    {
      "bufferView": 2,
      "componentType": 5126,
      "count": 633,
      "max": [
        -619.3770141601563,
        -871.5479736328125,
        20.94580078125
      ],
      "min": [
        -642.0159912109375,
        -877.4240112304688,
        13.064000129699707
      ],
      "type": "VEC3"
    },
    {
      "bufferView": 2,
      "byteOffset": 7596,
      "componentType": 5126,
      "count": 633,
      "max": [
        0.986149251461029,
        0.9968835711479187,
        0.9998760223388672
      ],
      "min": [
        -0.9682039618492126,
        -0.9968835711479187,
        -0.9754109382629395
      ],
      "type": "VEC3"
    },
    {
      "bufferView": 1,
      "componentType": 5126,
      "count": 633,
      "max": [
        1.1319600343704224,
        1.3940900564193726
      ],
      "min": [
        -1.1319600343704224,
        0.6059110164642334
      ],
      "type": "VEC2"
    },
    {
      "bufferView": 0,
      "componentType": 5125,
      "count": 2181,
      "type": "SCALAR"
    },
    {
      "bufferView": 2,
      "byteOffset": 15192,
      "componentType": 5126,
      "count": 60,
      "max": [
        -627.25,
        -871.39599609375,
        19.783300399780273
      ],
      "min": [
        -637.3930053710938,
        -877.5759887695313,
        14.951899528503418
      ],
      "type": "VEC3"
    },
    {
      "bufferView": 2,
      "byteOffset": 15912,
      "componentType": 5126,
      "count": 60,
      "max": [
        0.14224886894226074,
        0.9999690055847168,
        0.623711884021759
      ],
      "min": [
        -0.11821265518665314,
        -0.9999690055847168,
        -0.623711884021759
      ],
      "type": "VEC3"
    },
    {
      "bufferView": 1,
      "byteOffset": 5064,
      "componentType": 5126,
      "count": 60,
      "max": [
        0.5071439743041992,
        1.241569995880127
      ],
      "min": [
        -0.5071439743041992,
        0.7584270238876343
      ],
      "type": "VEC2"
    },
    {
      "bufferView": 0,
      "byteOffset": 8724,
      "componentType": 5125,
      "count": 240,
      "type": "SCALAR"
    }
  ],
  "asset": {
    "extras": {
      "author": "BuildCG (https://sketchfab.com/HadiBuilditon)",
      "license": "CC-BY-4.0 (http://creativecommons.org/licenses/by/4.0/)",
      "source": "https://sketchfab.com/3d-models/cornflow-blimp-air-balloon-v19-6d77608a42744e368f0375ad1fa4e309",
      "title": "Cornflow Blimp Air Balloon V.1.9"
    },
    "generator": "Sketchfab-16.31.0",
    "version": "2.0"
  },
  "bufferViews": [
    {
      "buffer": 0,
      "byteLength": 9684,
      "name": "floatBufferViews",
      "target": 34963
    },
    {
      "buffer": 0,
      "byteLength": 5544,
      "byteOffset": 9684,
      "byteStride": 8,
      "name": "floatBufferViews",
      "target": 34962
    },
    {
      "buffer": 0,
      "byteLength": 16632,
      "byteOffset": 15228,
      "byteStride": 12,
      "name": "floatBufferViews",
      "target": 34962
    }
  ],
  "buffers": [
    {
      "byteLength": 31860,
      "uri": "scene.bin"
    }
  ],
  "extensionsUsed": [
    "KHR_materials_clearcoat",
    "KHR_materials_specular"
  ],
  "materials": [
    {
      "doubleSided": true,
      "extensions": {
        "KHR_materials_clearcoat": {
          "clearcoatFactor": 1.0,
          "clearcoatRoughnessFactor": 0.04
        },
        "KHR_materials_specular": {
          "specularColorFactor": [
            1.0,
            1.0,
            1.0
          ],
          "specularFactor": 0.3883689532453689
        }
      },
      "name": "Meshescarscircle0031Mtl",
      "pbrMetallicRoughness": {
        "baseColorFactor": [
          0.0006381830000000008,
          0.25491599999999975,
          0.6320429999999995,
          1.0
        ],
        "metallicFactor": 0.0,
        "roughnessFactor": 0.25939648282709427
      }
    },
    {
      "doubleSided": true,
      "extensions": {
        "KHR_materials_clearcoat": {
          "clearcoatFactor": 1.0,
          "clearcoatRoughnessFactor": 0.04
        },
        "KHR_materials_specular": {
          "specularColorFactor": [
            1.0,
            1.0,
            1.0
          ],
          "specularFactor": 0.388
        }
      },
      "name": "Meshescarscircle0041Mtl",
      "pbrMetallicRoughness": {
        "baseColorFactor": [
          0.399293,
          0.517401,
          0.325037,
          1.0
        ],
        "metallicFactor": 0.0,
        "roughnessFactor": 0.259
      }
    }
  ],
  "meshes": [
    {
      "name": "Object_0",
      "primitives": [
        {
          "attributes": {
            "NORMAL": 1,
            "POSITION": 0,
            "TEXCOORD_0": 2
          },
          "indices": 3,
          "material": 0,
          "mode": 4
        }
      ]
    },
    {
      "name": "Object_1",
      "primitives": [
        {
          "attributes": {
            "NORMAL": 5,
            "POSITION": 4,
            "TEXCOORD_0": 6
          },
          "indices": 7,
          "material": 1,
          "mode": 4
        }
      ]
    }
  ],
  "nodes": [
    {
      "children": [
        1
      ],
      "matrix": [
        0.9879196882247925,
        -1.1325295711166495e-16,
        -0.15496674180030823,
        0.0,
        -0.15496674180030823,
        2.356464717502777e-16,
        -0.9879196882247925,
        0.0,
        1.4840219729709295e-16,
        1.0,
        2.1524934638500054e-16,
        0.0,
        0.0,
        0.0,
        0.0,
        1.0
      ],
      "name": "Sketchfab_model"
    },
    {
      "children": [
        2,
        3
      ],
      "name": "FDFR.obj.cleaner.materialmerger.gles"
    },
    {
      "mesh": 0,
      "name": "Object_2"
    },
    {
      "mesh": 1,
      "name": "Object_3"
    }
  ],
  "scene": 0,
  "scenes": [
    {
      "name": "Sketchfab_Scene",
      "nodes": [
        0
      ]
    }
  ]
}
