{
	"asset":{
		"generator":"Khronos glTF Blender I/O v4.2.69",
		"version":"2.0"
	},
	"scene":0,
	"scenes":[
		{
			"name":"Scene",
			"nodes":[
				0,
				1,
				2,
				3,
				4,
				5,
				6,
				7,
				8,
				9,
				10,
				11,
				12,
				13
			]
		}
	],
	"nodes":[
		{
			"mesh":0,
			"name":"envelope",
			"rotation":[
				-0.7071068286895752,
				0,
				0,
				0.7071068286895752
			],
			"scale":[
				25,
				100,
				25
			]
		},
		{
			"mesh":1,
			"name":"cabin",
			"scale":[
				2.5,
				2.0497329235076904,
				20.59881591796875
			],
			"translation":[
				0,
				-28.499113082885742,
				0
			]
		},
		{
			"mesh":2,
			"name":"right_engine_1",
			"rotation":[
				0.7071068286895752,
				0,
				0,
				0.7071068286895752
			],
			"translation":[
				3.561350107192993,
				-29.05419921875,
				0.6071929931640625
			]
		},
		{
			"mesh":3,
			"name":"left_engine_1",
			"rotation":[
				0.7071068286895752,
				0,
				0,
				0.7071068286895752
			],
			"translation":[
				-3.561353921890259,
				-29.054166793823242,
				0.6071932911872864
			]
		},
		{
			"mesh":4,
			"name":"right_engine_2",
			"rotation":[
				0.7071068286895752,
				0,
				0,
				0.7071068286895752
			],
			"translation":[
				28.562700271606445,
				-0.356550008058548,
				-14.392805099487305
			]
		},
		{
			"mesh":5,
			"name":"right_engine_3",
			"rotation":[
				0.7071068286895752,
				0,
				0,
				0.7071068286895752
			],
			"translation":[
				28.562715530395508,
				-0.35655131936073303,
				25.607194900512695
			]
		},
		{
			"mesh":6,
			"name":"left_engine_1_propeller",
			"rotation":[
				0.7071068286895752,
				0,
				0,
				0.7071068286895752
			],
			"scale":[
				-0.0967249870300293,
				-0.0967249870300293,
				-0.0967249870300293
			],
			"translation":[
				-3.561350107192993,
				-29.05419921875,
				-0.7950319051742554
			]
		},
		{
			"mesh":7,
			"name":"right_engine_2_propeller",
			"rotation":[
				0.7071068286895752,
				0,
				0,
				0.7071068286895752
			],
			"scale":[
				-0.0967249870300293,
				-0.0967249870300293,
				-0.0967249870300293
			],
			"translation":[
				28.562700271606445,
				-0.3565499782562256,
				-15.889864921569824
			]
		},
		{
			"mesh":8,
			"name":"right_engine_3_propeller",
			"rotation":[
				0.7071068286895752,
				0,
				0,
				0.7071068286895752
			],
			"scale":[
				-0.0967249870300293,
				-0.0967249870300293,
				-0.0967249870300293
			],
			"translation":[
				28.562700271606445,
				-0.35655173659324646,
				24.267959594726562
			]
		},
		{
			"mesh":9,
			"name":"right_engine_1_propeller",
			"rotation":[
				0.7071068286895752,
				0,
				0,
				0.7071068286895752
			],
			"scale":[
				-0.0967249870300293,
				-0.0967249870300293,
				-0.0967249870300293
			],
			"translation":[
				3.561350107192993,
				-29.05419921875,
				-0.7950319051742554
			]
		},
		{
			"mesh":10,
			"name":"left_engine_3_propeller",
			"rotation":[
				0.7071068286895752,
				0,
				0,
				0.7071068286895752
			],
			"scale":[
				-0.0967249870300293,
				-0.0967249870300293,
				-0.0967249870300293
			],
			"translation":[
				-28.562700271606445,
				-0.35655173659324646,
				24.267959594726562
			]
		},
		{
			"mesh":11,
			"name":"left_engine_3",
			"rotation":[
				0.7071068286895752,
				0,
				0,
				0.7071068286895752
			],
			"translation":[
				-28.562700271606445,
				-0.35655131936073303,
				25.607194900512695
			]
		},
		{
			"mesh":12,
			"name":"left_engine_2_propeller",
			"rotation":[
				0.7071068286895752,
				0,
				0,
				0.7071068286895752
			],
			"scale":[
				-0.0967249870300293,
				-0.0967249870300293,
				-0.0967249870300293
			],
			"translation":[
				-28.562700271606445,
				-0.3565499782562256,
				-15.889864921569824
			]
		},
		{
			"mesh":13,
			"name":"left_engine_2",
			"rotation":[
				0.7071068286895752,
				0,
				0,
				0.7071068286895752
			],
			"translation":[
				-28.562700271606445,
				-0.356550008058548,
				-14.392805099487305
			]
		}
	],
	"meshes":[
		{
			"name":"Cylinder",
			"primitives":[
				{
					"attributes":{
						"POSITION":0,
						"NORMAL":1,
						"TEXCOORD_0":2
					},
					"indices":3
				}
			]
		},
		{
			"name":"Cube.003",
			"primitives":[
				{
					"attributes":{
						"POSITION":4,
						"NORMAL":5,
						"TEXCOORD_0":6,
						"TANGENT":7
					},
					"indices":8
				}
			]
		},
		{
			"name":"Cylinder.001",
			"primitives":[
				{
					"attributes":{
						"POSITION":9,
						"NORMAL":10,
						"TEXCOORD_0":11
					},
					"indices":12
				}
			]
		},
		{
			"name":"Cylinder.002",
			"primitives":[
				{
					"attributes":{
						"POSITION":13,
						"NORMAL":14,
						"TEXCOORD_0":15
					},
					"indices":12
				}
			]
		},
		{
			"name":"Cylinder.003",
			"primitives":[
				{
					"attributes":{
						"POSITION":16,
						"NORMAL":17,
						"TEXCOORD_0":18
					},
					"indices":12
				}
			]
		},
		{
			"name":"Cylinder.004",
			"primitives":[
				{
					"attributes":{
						"POSITION":19,
						"NORMAL":20,
						"TEXCOORD_0":21
					},
					"indices":12
				}
			]
		},
		{
			"name":"Cylinder.006",
			"primitives":[
				{
					"attributes":{
						"POSITION":22,
						"NORMAL":23,
						"TEXCOORD_0":24
					},
					"indices":25
				}
			]
		},
		{
			"name":"Cylinder.007",
			"primitives":[
				{
					"attributes":{
						"POSITION":26,
						"NORMAL":27,
						"TEXCOORD_0":28
					},
					"indices":25
				}
			]
		},
		{
			"name":"Cylinder.008",
			"primitives":[
				{
					"attributes":{
						"POSITION":29,
						"NORMAL":30,
						"TEXCOORD_0":31
					},
					"indices":25
				}
			]
		},
		{
			"name":"Cylinder.009",
			"primitives":[
				{
					"attributes":{
						"POSITION":32,
						"NORMAL":33,
						"TEXCOORD_0":34
					},
					"indices":25
				}
			]
		},
		{
			"name":"Cylinder.010",
			"primitives":[
				{
					"attributes":{
						"POSITION":35,
						"NORMAL":36,
						"TEXCOORD_0":37
					},
					"indices":25
				}
			]
		},
		{
			"name":"Cylinder.011",
			"primitives":[
				{
					"attributes":{
						"POSITION":38,
						"NORMAL":39,
						"TEXCOORD_0":40
					},
					"indices":12
				}
			]
		},
		{
			"name":"Cylinder.012",
			"primitives":[
				{
					"attributes":{
						"POSITION":41,
						"NORMAL":42,
						"TEXCOORD_0":43
					},
					"indices":25
				}
			]
		},
		{
			"name":"Cylinder.013",
			"primitives":[
				{
					"attributes":{
						"POSITION":44,
						"NORMAL":45,
						"TEXCOORD_0":46
					},
					"indices":12
				}
			]
		}
	],
	"accessors":[
		{
			"bufferView":0,
			"componentType":5126,
			"count":1152,
			"max":[
				1.2705278396606445,
				1,
				1.1014817953109741
			],
			"min":[
				-1.2705278396606445,
				-1,
				-1.1014817953109741
			],
			"type":"VEC3"
		},
		{
			"bufferView":1,
			"componentType":5126,
			"count":1152,
			"type":"VEC3"
		},
		{
			"bufferView":2,
			"componentType":5126,
			"count":1152,
			"type":"VEC2"
		},
		{
			"bufferView":3,
			"componentType":5123,
			"count":1812,
			"type":"SCALAR"
		},
		{
			"bufferView":4,
			"componentType":5126,
			"count":24,
			"max":[
				1,
				1,
				1
			],
			"min":[
				-1,
				-1,
				-1
			],
			"type":"VEC3"
		},
		{
			"bufferView":5,
			"componentType":5126,
			"count":24,
			"type":"VEC3"
		},
		{
			"bufferView":6,
			"componentType":5126,
			"count":24,
			"type":"VEC2"
		},
		{
			"bufferView":7,
			"componentType":5126,
			"count":24,
			"type":"VEC4"
		},
		{
			"bufferView":8,
			"componentType":5123,
			"count":36,
			"type":"SCALAR"
		},
		{
			"bufferView":9,
			"componentType":5126,
			"count":192,
			"max":[
				1,
				1,
				1
			],
			"min":[
				-1,
				-1,
				-1
			],
			"type":"VEC3"
		},
		{
			"bufferView":10,
			"componentType":5126,
			"count":192,
			"type":"VEC3"
		},
		{
			"bufferView":11,
			"componentType":5126,
			"count":192,
			"type":"VEC2"
		},
		{
			"bufferView":12,
			"componentType":5123,
			"count":372,
			"type":"SCALAR"
		},
		{
			"bufferView":13,
			"componentType":5126,
			"count":192,
			"max":[
				1,
				1,
				1
			],
			"min":[
				-1,
				-1,
				-1
			],
			"type":"VEC3"
		},
		{
			"bufferView":14,
			"componentType":5126,
			"count":192,
			"type":"VEC3"
		},
		{
			"bufferView":15,
			"componentType":5126,
			"count":192,
			"type":"VEC2"
		},
		{
			"bufferView":16,
			"componentType":5126,
			"count":192,
			"max":[
				1,
				1,
				1
			],
			"min":[
				-1,
				-1,
				-1
			],
			"type":"VEC3"
		},
		{
			"bufferView":17,
			"componentType":5126,
			"count":192,
			"type":"VEC3"
		},
		{
			"bufferView":18,
			"componentType":5126,
			"count":192,
			"type":"VEC2"
		},
		{
			"bufferView":19,
			"componentType":5126,
			"count":192,
			"max":[
				1,
				1,
				1
			],
			"min":[
				-1,
				-1,
				-1
			],
			"type":"VEC3"
		},
		{
			"bufferView":20,
			"componentType":5126,
			"count":192,
			"type":"VEC3"
		},
		{
			"bufferView":21,
			"componentType":5126,
			"count":192,
			"type":"VEC2"
		},
		{
			"bufferView":22,
			"componentType":5126,
			"count":72,
			"max":[
				8.714157104492188,
				1,
				12.067341804504395
			],
			"min":[
				-12.187093734741211,
				-1,
				-12.067341804504395
			],
			"type":"VEC3"
		},
		{
			"bufferView":23,
			"componentType":5126,
			"count":72,
			"type":"VEC3"
		},
		{
			"bufferView":24,
			"componentType":5126,
			"count":72,
			"type":"VEC2"
		},
		{
			"bufferView":25,
			"componentType":5123,
			"count":132,
			"type":"SCALAR"
		},
		{
			"bufferView":26,
			"componentType":5126,
			"count":72,
			"max":[
				8.714157104492188,
				1,
				12.067341804504395
			],
			"min":[
				-12.187093734741211,
				-1,
				-12.067341804504395
			],
			"type":"VEC3"
		},
		{
			"bufferView":27,
			"componentType":5126,
			"count":72,
			"type":"VEC3"
		},
		{
			"bufferView":28,
			"componentType":5126,
			"count":72,
			"type":"VEC2"
		},
		{
			"bufferView":29,
			"componentType":5126,
			"count":72,
			"max":[
				8.714157104492188,
				1,
				12.067341804504395
			],
			"min":[
				-12.187093734741211,
				-1,
				-12.067341804504395
			],
			"type":"VEC3"
		},
		{
			"bufferView":30,
			"componentType":5126,
			"count":72,
			"type":"VEC3"
		},
		{
			"bufferView":31,
			"componentType":5126,
			"count":72,
			"type":"VEC2"
		},
		{
			"bufferView":32,
			"componentType":5126,
			"count":72,
			"max":[
				8.714157104492188,
				1,
				12.067341804504395
			],
			"min":[
				-12.187093734741211,
				-1,
				-12.067341804504395
			],
			"type":"VEC3"
		},
		{
			"bufferView":33,
			"componentType":5126,
			"count":72,
			"type":"VEC3"
		},
		{
			"bufferView":34,
			"componentType":5126,
			"count":72,
			"type":"VEC2"
		},
		{
			"bufferView":35,
			"componentType":5126,
			"count":72,
			"max":[
				8.714157104492188,
				1,
				12.067341804504395
			],
			"min":[
				-12.187093734741211,
				-1,
				-12.067341804504395
			],
			"type":"VEC3"
		},
		{
			"bufferView":36,
			"componentType":5126,
			"count":72,
			"type":"VEC3"
		},
		{
			"bufferView":37,
			"componentType":5126,
			"count":72,
			"type":"VEC2"
		},
		{
			"bufferView":38,
			"componentType":5126,
			"count":192,
			"max":[
				1,
				1,
				1
			],
			"min":[
				-1,
				-1,
				-1
			],
			"type":"VEC3"
		},
		{
			"bufferView":39,
			"componentType":5126,
			"count":192,
			"type":"VEC3"
		},
		{
			"bufferView":40,
			"componentType":5126,
			"count":192,
			"type":"VEC2"
		},
		{
			"bufferView":41,
			"componentType":5126,
			"count":72,
			"max":[
				8.714157104492188,
				1,
				12.067341804504395
			],
			"min":[
				-12.187093734741211,
				-1,
				-12.067341804504395
			],
			"type":"VEC3"
		},
		{
			"bufferView":42,
			"componentType":5126,
			"count":72,
			"type":"VEC3"
		},
		{
			"bufferView":43,
			"componentType":5126,
			"count":72,
			"type":"VEC2"
		},
		{
			"bufferView":44,
			"componentType":5126,
			"count":192,
			"max":[
				1,
				1,
				1
			],
			"min":[
				-1,
				-1,
				-1
			],
			"type":"VEC3"
		},
		{
			"bufferView":45,
			"componentType":5126,
			"count":192,
			"type":"VEC3"
		},
		{
			"bufferView":46,
			"componentType":5126,
			"count":192,
			"type":"VEC2"
		}
	],
	"bufferViews":[
		{
			"buffer":0,
			"byteLength":13824,
			"byteOffset":0,
			"target":34962
		},
		{
			"buffer":0,
			"byteLength":13824,
			"byteOffset":13824,
			"target":34962
		},
		{
			"buffer":0,
			"byteLength":9216,
			"byteOffset":27648,
			"target":34962
		},
		{
			"buffer":0,
			"byteLength":3624,
			"byteOffset":36864,
			"target":34963
		},
		{
			"buffer":0,
			"byteLength":288,
			"byteOffset":40488,
			"target":34962
		},
		{
			"buffer":0,
			"byteLength":288,
			"byteOffset":40776,
			"target":34962
		},
		{
			"buffer":0,
			"byteLength":192,
			"byteOffset":41064,
			"target":34962
		},
		{
			"buffer":0,
			"byteLength":384,
			"byteOffset":41256,
			"target":34962
		},
		{
			"buffer":0,
			"byteLength":72,
			"byteOffset":41640,
			"target":34963
		},
		{
			"buffer":0,
			"byteLength":2304,
			"byteOffset":41712,
			"target":34962
		},
		{
			"buffer":0,
			"byteLength":2304,
			"byteOffset":44016,
			"target":34962
		},
		{
			"buffer":0,
			"byteLength":1536,
			"byteOffset":46320,
			"target":34962
		},
		{
			"buffer":0,
			"byteLength":744,
			"byteOffset":47856,
			"target":34963
		},
		{
			"buffer":0,
			"byteLength":2304,
			"byteOffset":48600,
			"target":34962
		},
		{
			"buffer":0,
			"byteLength":2304,
			"byteOffset":50904,
			"target":34962
		},
		{
			"buffer":0,
			"byteLength":1536,
			"byteOffset":53208,
			"target":34962
		},
		{
			"buffer":0,
			"byteLength":2304,
			"byteOffset":54744,
			"target":34962
		},
		{
			"buffer":0,
			"byteLength":2304,
			"byteOffset":57048,
			"target":34962
		},
		{
			"buffer":0,
			"byteLength":1536,
			"byteOffset":59352,
			"target":34962
		},
		{
			"buffer":0,
			"byteLength":2304,
			"byteOffset":60888,
			"target":34962
		},
		{
			"buffer":0,
			"byteLength":2304,
			"byteOffset":63192,
			"target":34962
		},
		{
			"buffer":0,
			"byteLength":1536,
			"byteOffset":65496,
			"target":34962
		},
		{
			"buffer":0,
			"byteLength":864,
			"byteOffset":67032,
			"target":34962
		},
		{
			"buffer":0,
			"byteLength":864,
			"byteOffset":67896,
			"target":34962
		},
		{
			"buffer":0,
			"byteLength":576,
			"byteOffset":68760,
			"target":34962
		},
		{
			"buffer":0,
			"byteLength":264,
			"byteOffset":69336,
			"target":34963
		},
		{
			"buffer":0,
			"byteLength":864,
			"byteOffset":69600,
			"target":34962
		},
		{
			"buffer":0,
			"byteLength":864,
			"byteOffset":70464,
			"target":34962
		},
		{
			"buffer":0,
			"byteLength":576,
			"byteOffset":71328,
			"target":34962
		},
		{
			"buffer":0,
			"byteLength":864,
			"byteOffset":71904,
			"target":34962
		},
		{
			"buffer":0,
			"byteLength":864,
			"byteOffset":72768,
			"target":34962
		},
		{
			"buffer":0,
			"byteLength":576,
			"byteOffset":73632,
			"target":34962
		},
		{
			"buffer":0,
			"byteLength":864,
			"byteOffset":74208,
			"target":34962
		},
		{
			"buffer":0,
			"byteLength":864,
			"byteOffset":75072,
			"target":34962
		},
		{
			"buffer":0,
			"byteLength":576,
			"byteOffset":75936,
			"target":34962
		},
		{
			"buffer":0,
			"byteLength":864,
			"byteOffset":76512,
			"target":34962
		},
		{
			"buffer":0,
			"byteLength":864,
			"byteOffset":77376,
			"target":34962
		},
		{
			"buffer":0,
			"byteLength":576,
			"byteOffset":78240,
			"target":34962
		},
		{
			"buffer":0,
			"byteLength":2304,
			"byteOffset":78816,
			"target":34962
		},
		{
			"buffer":0,
			"byteLength":2304,
			"byteOffset":81120,
			"target":34962
		},
		{
			"buffer":0,
			"byteLength":1536,
			"byteOffset":83424,
			"target":34962
		},
		{
			"buffer":0,
			"byteLength":864,
			"byteOffset":84960,
			"target":34962
		},
		{
			"buffer":0,
			"byteLength":864,
			"byteOffset":85824,
			"target":34962
		},
		{
			"buffer":0,
			"byteLength":576,
			"byteOffset":86688,
			"target":34962
		},
		{
			"buffer":0,
			"byteLength":2304,
			"byteOffset":87264,
			"target":34962
		},
		{
			"buffer":0,
			"byteLength":2304,
			"byteOffset":89568,
			"target":34962
		},
		{
			"buffer":0,
			"byteLength":1536,
			"byteOffset":91872,
			"target":34962
		}
	],
	"buffers":[
		{
			"byteLength":93408,
			"uri":"ciggar-db811bd5c687fcf0099aca13cbcaec88.bin"
		}
	]
}
