{
	"asset":{
		"generator":"Khronos glTF Blender I/O v4.2.69",
		"version":"2.0"
	},
	"scene":0,
	"scenes":[
		{
			"name":"Scene",
			"nodes":[
				0,
				1,
				2,
				3,
				4,
				5,
				6,
				7,
				8,
				9,
				10,
				11
			]
		}
	],
	"nodes":[
		{
			"mesh":0,
			"name":"envelope",
			"rotation":[
				0.7071068286895752,
				0,
				0,
				0.7071068286895752
			],
			"scale":[
				14.197047233581543,
				37.85879135131836,
				14.197047233581543
			],
			"translation":[
				0.011608641594648361,
				4.363029479980469,
				3.0380449295043945
			]
		},
		{
			"mesh":1,
			"name":"vertical stabiliser",
			"scale":[
				1.5914719104766846,
				10.647774696350098,
				3.4332809448242188
			],
			"translation":[
				0.011608641594648361,
				4.363029479980469,
				-30.91145896911621
			]
		},
		{
			"mesh":2,
			"name":"gondola",
			"rotation":[
				0.7071068286895752,
				0,
				0,
				0.7071068286895752
			],
			"scale":[
				1.5914719104766846,
				10.138435363769531,
				2.3873214721679688
			],
			"translation":[
				0.011608641594648361,
				-13.930219650268555,
				3.0319395065307617
			]
		},
		{
			"mesh":3,
			"name":"right engine",
			"rotation":[
				0.7071068286895752,
				0,
				0,
				0.7071068286895752
			],
			"scale":[
				1.1936039924621582,
				1.5914719104766846,
				1.1936039924621582
			],
			"translation":[
				-2.3756000995635986,
				-14.854299545288086,
				3.0380399227142334
			]
		},
		{
			"mesh":4,
			"name":"left engine",
			"rotation":[
				0.7071068286895752,
				0,
				0,
				0.7071068286895752
			],
			"scale":[
				1.1936039924621582,
				1.5914719104766846,
				1.1936039924621582
			],
			"translation":[
				2.398819923400879,
				-14.854299545288086,
				3.0380399227142334
			]
		},
		{
			"mesh":5,
			"name":"left propeller",
			"rotation":[
				0.7071068286895752,
				0,
				0,
				0.7071068286895752
			],
			"scale":[
				0.1789962649345398,
				0.06513486802577972,
				0.1789962649345398
			],
			"translation":[
				2.398819923400879,
				-14.854299545288086,
				5.488469123840332
			]
		},
		{
			"mesh":6,
			"name":"right propeller",
			"rotation":[
				0.7071068286895752,
				0,
				0,
				0.7071068286895752
			],
			"scale":[
				0.1789962649345398,
				0.06513486802577972,
				0.1789962649345398
			],
			"translation":[
				-2.3756000995635986,
				-14.854299545288086,
				5.488469123840332
			]
		},
		{
			"mesh":7,
			"name":"horizontal stabiliser",
			"rotation":[
				0,
				0,
				-0.7071068286895752,
				0.7071068286895752
			],
			"scale":[
				1.5914719104766846,
				10.647774696350098,
				3.4332809448242188
			],
			"translation":[
				0.011608641594648361,
				4.363029479980469,
				-30.91145896911621
			]
		},
		{
			"mesh":8,
			"name":"rudder down",
			"scale":[
				1,
				4.021678924560547,
				1
			],
			"translation":[
				0,
				-3.944441080093384,
				-35.75028610229492
			]
		},
		{
			"mesh":9,
			"name":"rudder up",
			"scale":[
				1,
				4.021678924560547,
				1
			],
			"translation":[
				0,
				12.795089721679688,
				-35.75028610229492
			]
		},
		{
			"mesh":10,
			"name":"elevator right",
			"scale":[
				1,
				4.021678924560547,
				1
			],
			"translation":[
				-8.664228439331055,
				4.445011615753174,
				-35.75028610229492
			]
		},
		{
			"mesh":11,
			"name":"elevator left",
			"scale":[
				1,
				4.021678924560547,
				1
			],
			"translation":[
				8.114690780639648,
				4.445011615753174,
				-35.75028610229492
			]
		}
	],
	"animations":[
		{
			"channels":[
				{
					"sampler":0,
					"target":{
						"node":5,
						"path":"rotation"
					}
				}
			],
			"name":"left_propeler_spin",
			"samplers":[
				{
					"input":48,
					"interpolation":"LINEAR",
					"output":49
				}
			]
		},
		{
			"channels":[
				{
					"sampler":0,
					"target":{
						"node":6,
						"path":"rotation"
					}
				}
			],
			"name":"right_propeller_spin",
			"samplers":[
				{
					"input":48,
					"interpolation":"LINEAR",
					"output":50
				}
			]
		},
		{
			"channels":[
				{
					"sampler":0,
					"target":{
						"node":8,
						"path":"rotation"
					}
				}
			],
			"name":"rudder_left",
			"samplers":[
				{
					"input":48,
					"interpolation":"LINEAR",
					"output":51
				}
			]
		},
		{
			"channels":[
				{
					"sampler":0,
					"target":{
						"node":9,
						"path":"rotation"
					}
				}
			],
			"name":"rudder upAction",
			"samplers":[
				{
					"input":48,
					"interpolation":"LINEAR",
					"output":52
				}
			]
		},
		{
			"channels":[
				{
					"sampler":0,
					"target":{
						"node":10,
						"path":"rotation"
					}
				}
			],
			"name":"elevators_down",
			"samplers":[
				{
					"input":48,
					"interpolation":"LINEAR",
					"output":53
				}
			]
		},
		{
			"channels":[
				{
					"sampler":0,
					"target":{
						"node":11,
						"path":"rotation"
					}
				}
			],
			"name":"elevators_down",
			"samplers":[
				{
					"input":48,
					"interpolation":"LINEAR",
					"output":54
				}
			]
		}
	],
	"materials":[
		{
			"doubleSided":true,
			"name":"Material.001",
			"pbrMetallicRoughness":{
				"baseColorFactor":[
					0.800000011920929,
					0.800000011920929,
					0.800000011920929,
					1
				],
				"metallicFactor":0,
				"roughnessFactor":0.5
			}
		}
	],
	"meshes":[
		{
			"name":"Cylinder",
			"primitives":[
				{
					"attributes":{
						"POSITION":0,
						"NORMAL":1,
						"TEXCOORD_0":2
					},
					"indices":3,
					"material":0
				}
			]
		},
		{
			"name":"Cube.001",
			"primitives":[
				{
					"attributes":{
						"POSITION":4,
						"NORMAL":5,
						"TEXCOORD_0":6,
						"TANGENT":7
					},
					"indices":8
				}
			]
		},
		{
			"name":"Cube.003",
			"primitives":[
				{
					"attributes":{
						"POSITION":9,
						"NORMAL":10,
						"TEXCOORD_0":11,
						"TANGENT":12
					},
					"indices":8
				}
			]
		},
		{
			"name":"Cylinder.001",
			"primitives":[
				{
					"attributes":{
						"POSITION":13,
						"NORMAL":14,
						"TEXCOORD_0":15
					},
					"indices":16
				}
			]
		},
		{
			"name":"Cylinder.002",
			"primitives":[
				{
					"attributes":{
						"POSITION":17,
						"NORMAL":18,
						"TEXCOORD_0":19
					},
					"indices":16
				}
			]
		},
		{
			"name":"Cylinder.005",
			"primitives":[
				{
					"attributes":{
						"POSITION":20,
						"NORMAL":21,
						"TEXCOORD_0":22
					},
					"indices":23
				}
			]
		},
		{
			"name":"Cylinder.006",
			"primitives":[
				{
					"attributes":{
						"POSITION":24,
						"NORMAL":25,
						"TEXCOORD_0":26
					},
					"indices":23
				}
			]
		},
		{
			"name":"Cube.004",
			"primitives":[
				{
					"attributes":{
						"POSITION":27,
						"NORMAL":28,
						"TEXCOORD_0":29,
						"TANGENT":30
					},
					"indices":8
				}
			]
		},
		{
			"name":"Cube",
			"primitives":[
				{
					"attributes":{
						"POSITION":31,
						"NORMAL":32,
						"TEXCOORD_0":33,
						"TANGENT":34
					},
					"indices":8
				}
			]
		},
		{
			"name":"Cube.005",
			"primitives":[
				{
					"attributes":{
						"POSITION":35,
						"NORMAL":36,
						"TEXCOORD_0":37,
						"TANGENT":38
					},
					"indices":8
				}
			]
		},
		{
			"name":"Cube.006",
			"primitives":[
				{
					"attributes":{
						"POSITION":39,
						"NORMAL":40,
						"TEXCOORD_0":41,
						"TANGENT":42
					},
					"indices":43
				}
			]
		},
		{
			"name":"Cube.007",
			"primitives":[
				{
					"attributes":{
						"POSITION":44,
						"NORMAL":45,
						"TEXCOORD_0":46,
						"TANGENT":47
					},
					"indices":43
				}
			]
		}
	],
	"accessors":[
		{
			"bufferView":0,
			"componentType":5126,
			"count":1088,
			"max":[
				1.2720202207565308,
				0.9999998211860657,
				1.2720202207565308
			],
			"min":[
				-1.2720202207565308,
				-0.9999998807907104,
				-1.2720202207565308
			],
			"type":"VEC3"
		},
		{
			"bufferView":1,
			"componentType":5126,
			"count":1088,
			"type":"VEC3"
		},
		{
			"bufferView":2,
			"componentType":5126,
			"count":1088,
			"type":"VEC2"
		},
		{
			"bufferView":3,
			"componentType":5123,
			"count":1716,
			"type":"SCALAR"
		},
		{
			"bufferView":4,
			"componentType":5126,
			"count":24,
			"max":[
				1,
				1.2155709266662598,
				1
			],
			"min":[
				-1,
				-1.2155709266662598,
				-1
			],
			"type":"VEC3"
		},
		{
			"bufferView":5,
			"componentType":5126,
			"count":24,
			"type":"VEC3"
		},
		{
			"bufferView":6,
			"componentType":5126,
			"count":24,
			"type":"VEC2"
		},
		{
			"bufferView":7,
			"componentType":5126,
			"count":24,
			"type":"VEC4"
		},
		{
			"bufferView":8,
			"componentType":5123,
			"count":36,
			"type":"SCALAR"
		},
		{
			"bufferView":9,
			"componentType":5126,
			"count":24,
			"max":[
				1,
				1,
				0.9999998211860657
			],
			"min":[
				-1,
				-1,
				-1
			],
			"type":"VEC3"
		},
		{
			"bufferView":10,
			"componentType":5126,
			"count":24,
			"type":"VEC3"
		},
		{
			"bufferView":11,
			"componentType":5126,
			"count":24,
			"type":"VEC2"
		},
		{
			"bufferView":12,
			"componentType":5126,
			"count":24,
			"type":"VEC4"
		},
		{
			"bufferView":13,
			"componentType":5126,
			"count":192,
			"max":[
				1,
				1,
				1
			],
			"min":[
				-1,
				-1,
				-1
			],
			"type":"VEC3"
		},
		{
			"bufferView":14,
			"componentType":5126,
			"count":192,
			"type":"VEC3"
		},
		{
			"bufferView":15,
			"componentType":5126,
			"count":192,
			"type":"VEC2"
		},
		{
			"bufferView":16,
			"componentType":5123,
			"count":372,
			"type":"SCALAR"
		},
		{
			"bufferView":17,
			"componentType":5126,
			"count":192,
			"max":[
				1,
				1,
				1
			],
			"min":[
				-1,
				-1,
				-1
			],
			"type":"VEC3"
		},
		{
			"bufferView":18,
			"componentType":5126,
			"count":192,
			"type":"VEC3"
		},
		{
			"bufferView":19,
			"componentType":5126,
			"count":192,
			"type":"VEC2"
		},
		{
			"bufferView":20,
			"componentType":5126,
			"count":114,
			"max":[
				6.902864456176758,
				1,
				7.546789646148682
			],
			"min":[
				-6.994883060455322,
				-1,
				-5.0278730392456055
			],
			"type":"VEC3"
		},
		{
			"bufferView":21,
			"componentType":5126,
			"count":114,
			"type":"VEC3"
		},
		{
			"bufferView":22,
			"componentType":5126,
			"count":114,
			"type":"VEC2"
		},
		{
			"bufferView":23,
			"componentType":5123,
			"count":240,
			"type":"SCALAR"
		},
		{
			"bufferView":24,
			"componentType":5126,
			"count":114,
			"max":[
				6.902864456176758,
				1,
				7.546789646148682
			],
			"min":[
				-6.994883060455322,
				-1,
				-5.0278730392456055
			],
			"type":"VEC3"
		},
		{
			"bufferView":25,
			"componentType":5126,
			"count":114,
			"type":"VEC3"
		},
		{
			"bufferView":26,
			"componentType":5126,
			"count":114,
			"type":"VEC2"
		},
		{
			"bufferView":27,
			"componentType":5126,
			"count":24,
			"max":[
				1,
				1.2155709266662598,
				1
			],
			"min":[
				-1,
				-1.2155709266662598,
				-1
			],
			"type":"VEC3"
		},
		{
			"bufferView":28,
			"componentType":5126,
			"count":24,
			"type":"VEC3"
		},
		{
			"bufferView":29,
			"componentType":5126,
			"count":24,
			"type":"VEC2"
		},
		{
			"bufferView":30,
			"componentType":5126,
			"count":24,
			"type":"VEC4"
		},
		{
			"bufferView":31,
			"componentType":5126,
			"count":24,
			"max":[
				1.4476066827774048,
				1.1242345571517944,
				1
			],
			"min":[
				-1.4476066827774048,
				-1.1242345571517944,
				-1
			],
			"type":"VEC3"
		},
		{
			"bufferView":32,
			"componentType":5126,
			"count":24,
			"type":"VEC3"
		},
		{
			"bufferView":33,
			"componentType":5126,
			"count":24,
			"type":"VEC2"
		},
		{
			"bufferView":34,
			"componentType":5126,
			"count":24,
			"type":"VEC4"
		},
		{
			"bufferView":35,
			"componentType":5126,
			"count":24,
			"max":[
				1.4476066827774048,
				1.1242345571517944,
				1
			],
			"min":[
				-1.4476066827774048,
				-1.1242345571517944,
				-1
			],
			"type":"VEC3"
		},
		{
			"bufferView":36,
			"componentType":5126,
			"count":24,
			"type":"VEC3"
		},
		{
			"bufferView":37,
			"componentType":5126,
			"count":24,
			"type":"VEC2"
		},
		{
			"bufferView":38,
			"componentType":5126,
			"count":24,
			"type":"VEC4"
		},
		{
			"bufferView":39,
			"componentType":5126,
			"count":24,
			"max":[
				4.521310329437256,
				0.3599509000778198,
				0.9999998807907104
			],
			"min":[
				-4.521310329437256,
				-0.3599509000778198,
				-1.0000001192092896
			],
			"type":"VEC3"
		},
		{
			"bufferView":40,
			"componentType":5126,
			"count":24,
			"type":"VEC3"
		},
		{
			"bufferView":41,
			"componentType":5126,
			"count":24,
			"type":"VEC2"
		},
		{
			"bufferView":42,
			"componentType":5126,
			"count":24,
			"type":"VEC4"
		},
		{
			"bufferView":43,
			"componentType":5123,
			"count":36,
			"type":"SCALAR"
		},
		{
			"bufferView":44,
			"componentType":5126,
			"count":24,
			"max":[
				4.521310329437256,
				0.3599509298801422,
				1
			],
			"min":[
				-4.521310329437256,
				-0.35995087027549744,
				-1
			],
			"type":"VEC3"
		},
		{
			"bufferView":45,
			"componentType":5126,
			"count":24,
			"type":"VEC3"
		},
		{
			"bufferView":46,
			"componentType":5126,
			"count":24,
			"type":"VEC2"
		},
		{
			"bufferView":47,
			"componentType":5126,
			"count":24,
			"type":"VEC4"
		},
		{
			"bufferView":48,
			"componentType":5126,
			"count":23,
			"max":[
				0.9583333333333334
			],
			"min":[
				0.041666666666666664
			],
			"type":"SCALAR"
		},
		{
			"bufferView":49,
			"componentType":5126,
			"count":23,
			"type":"VEC4"
		},
		{
			"bufferView":50,
			"componentType":5126,
			"count":23,
			"type":"VEC4"
		},
		{
			"bufferView":51,
			"componentType":5126,
			"count":23,
			"type":"VEC4"
		},
		{
			"bufferView":52,
			"componentType":5126,
			"count":23,
			"type":"VEC4"
		},
		{
			"bufferView":53,
			"componentType":5126,
			"count":23,
			"type":"VEC4"
		},
		{
			"bufferView":54,
			"componentType":5126,
			"count":23,
			"type":"VEC4"
		}
	],
	"bufferViews":[
		{
			"buffer":0,
			"byteLength":13056,
			"byteOffset":0,
			"target":34962
		},
		{
			"buffer":0,
			"byteLength":13056,
			"byteOffset":13056,
			"target":34962
		},
		{
			"buffer":0,
			"byteLength":8704,
			"byteOffset":26112,
			"target":34962
		},
		{
			"buffer":0,
			"byteLength":3432,
			"byteOffset":34816,
			"target":34963
		},
		{
			"buffer":0,
			"byteLength":288,
			"byteOffset":38248,
			"target":34962
		},
		{
			"buffer":0,
			"byteLength":288,
			"byteOffset":38536,
			"target":34962
		},
		{
			"buffer":0,
			"byteLength":192,
			"byteOffset":38824,
			"target":34962
		},
		{
			"buffer":0,
			"byteLength":384,
			"byteOffset":39016,
			"target":34962
		},
		{
			"buffer":0,
			"byteLength":72,
			"byteOffset":39400,
			"target":34963
		},
		{
			"buffer":0,
			"byteLength":288,
			"byteOffset":39472,
			"target":34962
		},
		{
			"buffer":0,
			"byteLength":288,
			"byteOffset":39760,
			"target":34962
		},
		{
			"buffer":0,
			"byteLength":192,
			"byteOffset":40048,
			"target":34962
		},
		{
			"buffer":0,
			"byteLength":384,
			"byteOffset":40240,
			"target":34962
		},
		{
			"buffer":0,
			"byteLength":2304,
			"byteOffset":40624,
			"target":34962
		},
		{
			"buffer":0,
			"byteLength":2304,
			"byteOffset":42928,
			"target":34962
		},
		{
			"buffer":0,
			"byteLength":1536,
			"byteOffset":45232,
			"target":34962
		},
		{
			"buffer":0,
			"byteLength":744,
			"byteOffset":46768,
			"target":34963
		},
		{
			"buffer":0,
			"byteLength":2304,
			"byteOffset":47512,
			"target":34962
		},
		{
			"buffer":0,
			"byteLength":2304,
			"byteOffset":49816,
			"target":34962
		},
		{
			"buffer":0,
			"byteLength":1536,
			"byteOffset":52120,
			"target":34962
		},
		{
			"buffer":0,
			"byteLength":1368,
			"byteOffset":53656,
			"target":34962
		},
		{
			"buffer":0,
			"byteLength":1368,
			"byteOffset":55024,
			"target":34962
		},
		{
			"buffer":0,
			"byteLength":912,
			"byteOffset":56392,
			"target":34962
		},
		{
			"buffer":0,
			"byteLength":480,
			"byteOffset":57304,
			"target":34963
		},
		{
			"buffer":0,
			"byteLength":1368,
			"byteOffset":57784,
			"target":34962
		},
		{
			"buffer":0,
			"byteLength":1368,
			"byteOffset":59152,
			"target":34962
		},
		{
			"buffer":0,
			"byteLength":912,
			"byteOffset":60520,
			"target":34962
		},
		{
			"buffer":0,
			"byteLength":288,
			"byteOffset":61432,
			"target":34962
		},
		{
			"buffer":0,
			"byteLength":288,
			"byteOffset":61720,
			"target":34962
		},
		{
			"buffer":0,
			"byteLength":192,
			"byteOffset":62008,
			"target":34962
		},
		{
			"buffer":0,
			"byteLength":384,
			"byteOffset":62200,
			"target":34962
		},
		{
			"buffer":0,
			"byteLength":288,
			"byteOffset":62584,
			"target":34962
		},
		{
			"buffer":0,
			"byteLength":288,
			"byteOffset":62872,
			"target":34962
		},
		{
			"buffer":0,
			"byteLength":192,
			"byteOffset":63160,
			"target":34962
		},
		{
			"buffer":0,
			"byteLength":384,
			"byteOffset":63352,
			"target":34962
		},
		{
			"buffer":0,
			"byteLength":288,
			"byteOffset":63736,
			"target":34962
		},
		{
			"buffer":0,
			"byteLength":288,
			"byteOffset":64024,
			"target":34962
		},
		{
			"buffer":0,
			"byteLength":192,
			"byteOffset":64312,
			"target":34962
		},
		{
			"buffer":0,
			"byteLength":384,
			"byteOffset":64504,
			"target":34962
		},
		{
			"buffer":0,
			"byteLength":288,
			"byteOffset":64888,
			"target":34962
		},
		{
			"buffer":0,
			"byteLength":288,
			"byteOffset":65176,
			"target":34962
		},
		{
			"buffer":0,
			"byteLength":192,
			"byteOffset":65464,
			"target":34962
		},
		{
			"buffer":0,
			"byteLength":384,
			"byteOffset":65656,
			"target":34962
		},
		{
			"buffer":0,
			"byteLength":72,
			"byteOffset":66040,
			"target":34963
		},
		{
			"buffer":0,
			"byteLength":288,
			"byteOffset":66112,
			"target":34962
		},
		{
			"buffer":0,
			"byteLength":288,
			"byteOffset":66400,
			"target":34962
		},
		{
			"buffer":0,
			"byteLength":192,
			"byteOffset":66688,
			"target":34962
		},
		{
			"buffer":0,
			"byteLength":384,
			"byteOffset":66880,
			"target":34962
		},
		{
			"buffer":0,
			"byteLength":92,
			"byteOffset":67264
		},
		{
			"buffer":0,
			"byteLength":368,
			"byteOffset":67356
		},
		{
			"buffer":0,
			"byteLength":368,
			"byteOffset":67724
		},
		{
			"buffer":0,
			"byteLength":368,
			"byteOffset":68092
		},
		{
			"buffer":0,
			"byteLength":368,
			"byteOffset":68460
		},
		{
			"buffer":0,
			"byteLength":368,
			"byteOffset":68828
		},
		{
			"buffer":0,
			"byteLength":368,
			"byteOffset":69196
		}
	],
	"buffers":[
		{
			"byteLength":69564,
			"uri":"floater-22fccde965fa7ec7c40f3d04a920a722.bin"
		}
	]
}
