{
	"asset":{
		"generator":"Khronos glTF Blender I/O v4.2.69",
		"version":"2.0"
	},
	"scene":0,
	"scenes":[
		{
			"name":"Scene",
			"nodes":[
				0,
				1
			]
		}
	],
	"nodes":[
		{
			"mesh":0,
			"name":"Cylinder",
			"rotation":[
				-0.7071068286895752,
				0,
				0,
				0.7071068286895752
			],
			"scale":[
				25,
				70,
				25
			]
		},
		{
			"mesh":1,
			"name":"Cube",
			"scale":[
				64.3141860961914,
				1.3642921447753906,
				9.560336112976074
			],
			"translation":[
				0,
				-7.929544925689697,
				56.560638427734375
			]
		}
	],
	"meshes":[
		{
			"name":"Cylinder",
			"primitives":[
				{
					"attributes":{
						"POSITION":0,
						"NORMAL":1,
						"TEXCOORD_0":2
					},
					"indices":3
				}
			]
		},
		{
			"name":"Cube.001",
			"primitives":[
				{
					"attributes":{
						"POSITION":4,
						"NORMAL":5,
						"TEXCOORD_0":6,
						"TANGENT":7
					},
					"indices":8
				}
			]
		}
	],
	"accessors":[
		{
			"bufferView":0,
			"componentType":5126,
			"count":1088,
			"max":[
				1.0788992643356323,
				1,
				1.0788992643356323
			],
			"min":[
				-1.0788992643356323,
				-1,
				-1.0788992643356323
			],
			"type":"VEC3"
		},
		{
			"bufferView":1,
			"componentType":5126,
			"count":1088,
			"type":"VEC3"
		},
		{
			"bufferView":2,
			"componentType":5126,
			"count":1088,
			"type":"VEC2"
		},
		{
			"bufferView":3,
			"componentType":5123,
			"count":1716,
			"type":"SCALAR"
		},
		{
			"bufferView":4,
			"componentType":5126,
			"count":24,
			"max":[
				1,
				1,
				1
			],
			"min":[
				-1,
				-1,
				-1
			],
			"type":"VEC3"
		},
		{
			"bufferView":5,
			"componentType":5126,
			"count":24,
			"type":"VEC3"
		},
		{
			"bufferView":6,
			"componentType":5126,
			"count":24,
			"type":"VEC2"
		},
		{
			"bufferView":7,
			"componentType":5126,
			"count":24,
			"type":"VEC4"
		},
		{
			"bufferView":8,
			"componentType":5123,
			"count":36,
			"type":"SCALAR"
		}
	],
	"bufferViews":[
		{
			"buffer":0,
			"byteLength":13056,
			"byteOffset":0,
			"target":34962
		},
		{
			"buffer":0,
			"byteLength":13056,
			"byteOffset":13056,
			"target":34962
		},
		{
			"buffer":0,
			"byteLength":8704,
			"byteOffset":26112,
			"target":34962
		},
		{
			"buffer":0,
			"byteLength":3432,
			"byteOffset":34816,
			"target":34963
		},
		{
			"buffer":0,
			"byteLength":288,
			"byteOffset":38248,
			"target":34962
		},
		{
			"buffer":0,
			"byteLength":288,
			"byteOffset":38536,
			"target":34962
		},
		{
			"buffer":0,
			"byteLength":192,
			"byteOffset":38824,
			"target":34962
		},
		{
			"buffer":0,
			"byteLength":384,
			"byteOffset":39016,
			"target":34962
		},
		{
			"buffer":0,
			"byteLength":72,
			"byteOffset":39400,
			"target":34963
		}
	],
	"buffers":[
		{
			"byteLength":39472,
			"uri":"medium-9796e5b71c1143b6b3cc527975e33927.bin"
		}
	]
}
